<svg xmlns="http://www.w3.org/2000/svg" width="1em" height="1em" viewBox="0 0 16 16"><path fill="currentColor" d="M8.854 11.702h-1l-.816-2.159H3.772l-.768 2.16H2L4.954 4h.935zm-2.111-2.97L5.534 5.45a3 3 0 0 1-.118-.515h-.021q-.054.327-.124.515L4.073 8.732zm7.013 2.97h-.88v-.86h-.022q-.574.99-1.692.99q-.822 0-1.29-.436q-.46-.435-.461-1.155q0-1.54 1.815-1.794l1.65-.23q0-1.403-1.134-1.403q-.994 0-1.794.677V6.59q.81-.516 1.87-.516q1.938 0 1.938 2.052zm-.88-2.782l-1.327.183q-.614.086-.924.306q-.312.215-.312.768q0 .403.285.66q.29.253.768.253a1.41 1.41 0 0 0 1.08-.457q.43-.462.43-1.165z"/></svg>